<?xml version="1.0" encoding="utf-8"?>
<!-- Generator: Adobe Illustrator 19.0.0, SVG Export Plug-In . SVG Version: 6.00 Build 0)  -->
<svg version="1.1" id="Layer_1" xmlns="http://www.w3.org/2000/svg" xmlns:xlink="http://www.w3.org/1999/xlink" x="0px" y="0px"
	 viewBox="-230.6 363.9 73.2 90" style="enable-background:new -230.6 363.9 73.2 90;" xml:space="preserve">
<style type="text/css">
	.st0{display:none;enable-background:new    ;}
	.st1{display:inline;}
</style>
<path d="M-157.4,368.8c0-1.1-0.1-2.2-0.3-3.3c-1.4,9.3-5.1,11.6-12.3,11.6c-4.7,0-9.5-2.7-11.7-7.6c-1.4-3.2-4.2-5.7-7.9-5.7
	c-1.7,0-3.3,0.5-4.6,1.4c-1.2-0.7-2.7-1.2-4.3-1.2c-3.7,0-6.5,2.5-7.9,5.7c-2.2,4.9-7,7.6-11.7,7.6c-7.3,0-11-2.3-12.3-11.6
	c-0.2,1.1-0.3,2.2-0.3,3.3c0,11.2,7.9,15.7,20.5,15.7c5.8,0,11.1-1.9,15.1-5.1c0,0,0.5-0.4,1.1-1c0.5,0.5,0.9,0.8,0.9,0.9
	c4,3.1,9.3,5.1,15.1,5.1c3.7,0,7-0.4,9.8-1.2v69.1c0,0.8,0.7,1.5,1.5,1.5s1.5-0.7,1.5-1.5v-70.3
	C-160.2,379.8-157.4,375.5-157.4,368.8z"/>
<text transform="matrix(1 0 0 1 -247 473.89)" class="st0" style="font-family:'HelveticaNeue-Bold'; font-size:5px;">Created by Claire Jones</text>
<text transform="matrix(1 0 0 1 -247 478.89)" class="st0" style="font-family:'HelveticaNeue-Bold'; font-size:5px;">from the Noun Project</text>
</svg>
